<svg width="104" height="56" fill="none" xmlns="http://www.w3.org/2000/svg"><path fill-rule="evenodd" clip-rule="evenodd" d="M38 7l7.008 6.676L32 13.67V46.06h34V33.676l7 6.669V7H38zm27.692 25.892l-19.87-18.93h19.87v18.93zm-6.169 8.43H37.38V19.538h1.565v20.31h20.578v1.476zm-17.727 10.74l-.825-1.698h-.681l1.196 2.246v1.309h.617V52.61l1.197-2.246h-.679l-.825 1.697zm3.042-1.698h.146l1.343 3.555h-.644l-.288-.832h-1.376l-.287.832h-.642l1.338-3.555H44.838zm-.652 2.237h1.041l-.52-1.508-.52 1.508zm4.296-.59a9.549 9.549 0 01-.077-.099 1.82 1.82 0 01-.213-.349.86.86 0 01-.075-.352c0-.185.038-.344.114-.478a.77.77 0 01.325-.308c.14-.073.304-.11.49-.11.181 0 .337.037.467.11a.766.766 0 01.35.984.896.896 0 01-.17.254 1.729 1.729 0 01-.248.218l-.247.18.704.83a1.407 1.407 0 00.153-.664h.508c0 .173-.017.336-.051.49a1.523 1.523 0 01-.26.587l.52.615h-.68l-.207-.243a1.384 1.384 0 01-.364.2 1.624 1.624 0 01-.552.092c-.236 0-.44-.043-.613-.13a.97.97 0 01-.4-.356.975.975 0 01-.14-.52c0-.145.03-.272.09-.38.061-.111.143-.214.247-.309.096-.087.206-.174.33-.261zm.292.358l-.074.053a.914.914 0 00-.193.203.59.59 0 00-.034.6.515.515 0 00.198.203.65.65 0 00.32.074c.135 0 .266-.03.393-.09a1.06 1.06 0 00.18-.113l-.79-.93zm.14-.65l.218-.146a.791.791 0 00.22-.2.444.444 0 00.066-.25.354.354 0 00-.374-.342.362.362 0 00-.339.21.502.502 0 00.015.435c.037.077.088.157.154.242l.04.052zm6.22 1.043h-.611a1.108 1.108 0 01-.112.393.554.554 0 01-.247.242.925.925 0 01-.422.083.748.748 0 01-.369-.086.707.707 0 01-.254-.242 1.192 1.192 0 01-.146-.373 2.365 2.365 0 01-.047-.488v-.3c0-.19.017-.357.051-.504.036-.148.09-.272.16-.373a.69.69 0 01.26-.23.809.809 0 01.367-.078c.17 0 .309.03.415.088.105.057.185.14.239.25.055.108.091.24.107.392h.61a1.53 1.53 0 00-.2-.632 1.128 1.128 0 00-.454-.432 1.509 1.509 0 00-.717-.157c-.223 0-.424.04-.603.118-.178.078-.33.19-.457.34a1.532 1.532 0 00-.293.529c-.067.206-.1.438-.1.693v.296c0 .255.033.486.098.693.066.207.163.383.288.53.125.145.276.257.451.337.176.078.374.117.594.117.286 0 .53-.052.73-.156.2-.105.355-.247.466-.428.11-.182.176-.39.195-.622zm3.39-.523v-.195c0-.268-.035-.509-.107-.72a1.56 1.56 0 00-.3-.545 1.277 1.277 0 00-.467-.344c-.18-.08-.38-.12-.6-.12-.218 0-.418.04-.598.12-.18.078-.335.193-.467.344-.13.15-.23.332-.302.545a2.241 2.241 0 00-.108.72v.195c0 .269.036.51.108.723a1.6 1.6 0 00.307.544c.132.15.288.265.466.345.181.078.38.117.599.117.22 0 .42-.04.6-.117.18-.08.336-.195.464-.345.13-.15.23-.33.3-.544.07-.213.105-.454.105-.723zm-.612-.2v.2c0 .199-.02.375-.059.528a1.159 1.159 0 01-.166.388.73.73 0 01-.268.237.813.813 0 01-.364.078.807.807 0 01-.362-.078.772.772 0 01-.273-.237 1.167 1.167 0 01-.171-.388 2.144 2.144 0 01-.059-.528v-.2c0-.198.02-.373.059-.525.04-.153.095-.28.168-.383a.728.728 0 01.271-.234.787.787 0 01.362-.081c.135 0 .256.027.364.08.107.053.197.13.27.235.075.102.132.23.169.383.04.152.059.327.059.525z" fill="#8E8F99"/></svg>